<?xml version="1.0" encoding="UTF-8" standalone="no"?>
<svg
   xmlns:dc="http://purl.org/dc/elements/1.1/"
   xmlns:cc="http://creativecommons.org/ns#"
   xmlns:rdf="http://www.w3.org/1999/02/22-rdf-syntax-ns#"
   xmlns:svg="http://www.w3.org/2000/svg"
   xmlns="http://www.w3.org/2000/svg"
   xmlns:sodipodi="http://sodipodi.sourceforge.net/DTD/sodipodi-0.dtd"
   xmlns:inkscape="http://www.inkscape.org/namespaces/inkscape"
   width="793.70081"
   height="1122.5197"
   viewBox="0 0 210 297"
   version="1.1"
   id="svg8"
   inkscape:version="1.0.1 (3bc2e813f5, 2020-09-07)"
   sodipodi:docname="purplelo.svg">
  <defs
     id="defs2">
    <filter
       inkscape:collect="always"
       style="color-interpolation-filters:sRGB"
       id="filter1377"
       x="-9.0656653e-07"
       width="1.0000018"
       y="-1.7742965e-06"
       height="1.0000035">
      <feGaussianBlur
         inkscape:collect="always"
         stdDeviation="1.99391e-06"
         id="feGaussianBlur1379" />
    </filter>
    <filter
       inkscape:collect="always"
       style="color-interpolation-filters:sRGB"
       id="filter1440"
       x="-3.0093862e-06"
       width="1.000006"
       y="-1.1852135e-05"
       height="1.0000237">
      <feGaussianBlur
         inkscape:collect="always"
         stdDeviation="3.1418744e-06"
         id="feGaussianBlur1442" />
    </filter>
  </defs>
  <sodipodi:namedview
     id="base"
     pagecolor="#ffffff"
     bordercolor="#666666"
     borderopacity="1.0"
     inkscape:pageopacity="0.0"
     inkscape:pageshadow="2"
     inkscape:zoom="0.35"
     inkscape:cx="112.29643"
     inkscape:cy="435.88254"
     inkscape:document-units="px"
     inkscape:current-layer="layer5"
     inkscape:document-rotation="0"
     showgrid="false"
     units="px"
     inkscape:snap-global="false"
     showguides="false"
     inkscape:window-width="1366"
     inkscape:window-height="705"
     inkscape:window-x="-8"
     inkscape:window-y="-8"
     inkscape:window-maximized="1" />
  <metadata
     id="metadata5">
    <rdf:RDF>
      <cc:Work
         rdf:about="">
        <dc:format>image/svg+xml</dc:format>
        <dc:type
           rdf:resource="http://purl.org/dc/dcmitype/StillImage" />
        <dc:title></dc:title>
      </cc:Work>
    </rdf:RDF>
  </metadata>
  <g
     inkscape:groupmode="layer"
     id="layer2"
     inkscape:label="Warstwa 2" />
  <g
     inkscape:groupmode="layer"
     id="layer3"
     inkscape:label="face" />
  <g
     inkscape:groupmode="layer"
     id="layer7"
     inkscape:label="eyebrows" />
  <g
     inkscape:groupmode="layer"
     id="layer4"
     inkscape:label="neck" />
  <g
     inkscape:groupmode="layer"
     id="layer8"
     inkscape:label="earings" />
  <g
     inkscape:groupmode="layer"
     id="layer6"
     inkscape:label="glasses etc " />
  <g
     inkscape:groupmode="layer"
     id="layer5"
     inkscape:label="neck shadow">
    <g
       id="g1551"
       inkscape:export-filename="C:\dev\Gabriela-Mozer.github.io\src\assets\img\purplelo.png"
       inkscape:export-xdpi="97"
       inkscape:export-ydpi="97"
       transform="matrix(15.887114,0,0,14.202499,-1587.2153,-1471.1603)">
      <path
         style="fill:#9e606b;fill-opacity:1;stroke:none;stroke-width:0.264583px;stroke-linecap:butt;stroke-linejoin:miter;stroke-opacity:1"
         d="m 106.68378,107.15625 c 0,0 2.64583,0.85045 3.07106,1.5119 0.42522,0.66146 0.58366,1.98892 0.91439,2.69763 0.33073,0.7087 0.45577,-0.42977 0.7865,0.23169 0.33073,0.66146 -0.10456,1.79163 -0.10456,1.79163 0,0 -0.17656,0.51725 -0.3987,0.70935 -0.25017,0.21633 -0.0644,-0.30866 -0.2007,-0.12938 -0.17156,0.22569 -0.28823,1.26642 -0.33548,1.17193 -0.0472,-0.0945 0.4016,-0.66146 0.28349,-0.75596 -0.11812,-0.0945 -0.0591,-2e-5 -0.0591,-2e-5 0,0 0.20933,-0.32778 -0.35859,0.80812 -0.56795,1.13589 -1.08578,1.46998 -1.08578,1.46998 0,0 0.13493,1.23062 -0.39256,2.31355 -0.53673,1.10195 -1.01061,2.04629 -0.9772,2.34697 0.0334,0.30067 -0.21716,0.45101 -0.0501,0.51783 0.16705,0.0668 -0.86862,0.80181 0.83522,0.0668 1.70385,-0.73499 1.00226,0 1.83748,-0.66817 0.83522,-0.66817 1.5368,-1.20271 1.97112,-1.70384 0.43431,-0.50113 0.4009,-0.73499 0.4009,-0.73499 0,0 0.4009,0.63476 -0.0334,-0.56795 -0.43431,-1.20271 -0.56795,-3.17383 -0.56795,-3.30746 0,-0.13364 -0.0334,-2.50565 -0.0668,-3.00678 -0.0334,-0.50114 -0.26727,-3.27406 -0.50113,-3.57473 -0.23386,-0.30068 -1.23612,-2.20498 -1.60361,-2.6727 -0.3675,-0.46772 -2.2718,-1.1693 -2.83974,-1.1693 -0.56795,0 -1.20509,0.0449 -1.20509,0.0449 l 0.77078,1.32488 c 0,0 -0.56795,-1.36975 -0.93545,-1.36975 -0.36749,0 -1.43657,0 -1.9377,0.60135 -0.50113,0.60136 -1.73725,1.97111 -1.9043,2.40543 -0.16704,0.43431 -0.90203,3.40769 -0.90203,3.60814 0,0.20045 -0.16704,0.4009 -0.13364,1.00226 0.0334,0.60136 0.0334,2.33861 0.0334,2.33861 0,0 -0.13363,-0.20046 -0.30068,0.36749 -0.16704,0.56795 -0.56794,1.73725 -0.46772,2.10475 0.10023,0.3675 -0.267268,1.40316 -0.20045,1.67043 0.0668,0.26728 0.53454,1.00226 0.7684,1.06908 0.23386,0.0668 0.13364,0.33409 0.90203,0.86863 0.7684,0.53454 0.90204,0.53454 1.50339,0.83522 0.60136,0.30067 0.66818,0.33408 1.20272,0.46772 0.53454,0.13363 0.63476,0.13363 0.63476,0.13363 0,0 0.27776,-0.37728 0.0439,-1.27932 -0.23386,-0.90203 -0.61311,-0.73717 -0.64525,-1.32656 -0.051,-0.93527 -0.0469,-1.32655 -0.0135,-1.79428 0.0334,-0.46772 0.007,-0.59905 -0.16055,-0.86541 -0.43047,-0.68068 -0.69197,-0.88724 -0.78545,-1.09389 -0.0821,-0.18152 -0.3564,-0.7743 -0.36851,-1.3151 -0.005,-0.20177 -0.19478,-0.29142 -0.28331,-0.41407 -0.0876,-0.12133 0.0232,1.53121 -0.12552,1.60735 -0.18611,0.0953 0.31849,-1.09462 0.0451,-1.57021 -0.28877,-0.5023 -1.21193,-1.09629 -1.19768,-1.36976 0.014,-0.26949 0.19516,-1.13387 0.19516,-1.13387 0,0 0.0305,-0.0194 0.10552,-0.0939 0.0419,-0.0416 0.30423,0.1014 0.51365,0.10438 0.40397,0.006 0.1044,-0.56377 0.27145,-0.88115 0.16704,-0.31738 0.25056,-0.95215 0.56794,-1.45328 0.31739,-0.50113 0.85193,-1.1693 1.36976,-1.45328 0.51784,-0.28397 2.1762,-1.42838 2.19709,-1.53048 0.2171,-1.06075 -0.13193,0.41982 -0.15353,0.56786 -0.0207,0.11808 -0.0391,0.23827 0.0709,0.47612 z"
         id="path1327"
         sodipodi:nodetypes="cssscsscscscsssssscssssssccssssscssssssscsssssssssscssssssccc" />
      <path
         style="opacity:1;fill:#ffc7a9;fill-opacity:1;stroke:none;stroke-width:0.264583px;stroke-linecap:butt;stroke-linejoin:miter;stroke-opacity:1"
         d="m 106.73103,106.16406 c 0.18898,0.56697 -0.18899,0.8977 0.47247,1.03944 0.66145,0.14174 2.55134,0.75595 2.78757,1.18117 0.23623,0.42522 0.62637,2.8365 0.72087,3.02548 0.0945,0.18899 0.66438,-0.45282 0.77957,0.015 0.17802,0.72304 0.0582,1.42552 -0.0835,1.8035 -0.14174,0.37798 -0.17982,0.60275 -0.32132,0.72778 -0.17597,0.14942 -0.11779,0.13954 -0.1728,0.2721 -0.34563,-0.004 -0.29352,0.57266 -0.59202,1.10142 -0.60255,1.06735 -0.74379,0.86573 -0.93278,1.14921 -0.8951,0.4383 -1.60374,2.76934 -4.62775,0.87549 -0.248,-0.4016 -0.63428,-0.7421 -0.87047,-1.09645 -0.71285,-1.06946 -0.89221,-1.21173 -0.89221,-1.63695 0,-0.42523 -0.0532,-0.45475 -0.0945,-0.51972 -0.56697,-0.0473 -0.57114,0.83535 -1.08668,-0.56696 -0.54936,-1.4943 -0.1917,-2.17608 0.0945,-2.22061 0.28348,-0.0473 0.61421,0.39557 0.61421,0 0,-1.46466 0.8032,-2.45685 1.22842,-3.2128 0.42523,-0.75595 2.27597,-1.4093 2.27597,-1.4093 z"
         id="path1330"
         sodipodi:nodetypes="csssssccsccsscscsscc" />
      <path
         style="opacity:0.872549;fill:#6c5353;stroke:none;stroke-width:0.264583;stroke-linecap:butt;stroke-linejoin:miter;stroke-miterlimit:4;stroke-dasharray:none;stroke-opacity:1;filter:url(#filter1440)"
         d="m 107.57598,110.78322 c 0,0 0.33409,-0.20045 0.51784,-0.30068 0.18375,-0.10023 0.52326,-0.18463 0.61806,-0.21716 0.0856,-0.0294 0.64448,0.0695 0.85192,0.10023 0.19898,0.0295 0.51784,0.4009 0.51784,0.4009 0,0 -0.41761,-0.10022 -0.51784,-0.13363 -0.10023,-0.0334 -0.52374,-0.0866 -0.84113,-0.0365 -0.31738,0.0501 -0.4284,0.28702 -0.61215,0.30372 -0.18374,0.0167 -0.53454,-0.11693 -0.53454,-0.11693 z"
         id="path1434"
         sodipodi:nodetypes="cssscsssc" />
      <path
         style="opacity:0.872549;fill:#6c5353;stroke:none;stroke-width:0.264583;stroke-linecap:butt;stroke-linejoin:miter;stroke-miterlimit:4;stroke-dasharray:none;stroke-opacity:1;filter:url(#filter1440)"
         d="m 103.63375,110.51595 c 0,0 0.33409,-0.20045 0.51784,-0.30068 0.18375,-0.10023 0.52326,-0.18463 0.61806,-0.21716 0.0856,-0.0294 0.64448,0.0695 0.85192,0.10023 0.19898,0.0295 0.51784,0.4009 0.51784,0.4009 0,0 -0.41761,-0.10022 -0.51784,-0.13363 -0.10023,-0.0334 -0.52374,-0.0866 -0.84113,-0.0365 -0.31738,0.0501 -0.4284,0.28702 -0.61215,0.30372 -0.18374,0.0167 -0.53454,-0.11693 -0.53454,-0.11693 z"
         id="path1444"
         sodipodi:nodetypes="cssscsssc"
         transform="matrix(-0.99999999,0,0,0.99999999,209.63953,0)" />
      <path
         style="fill:#f4bb9a;fill-opacity:1;stroke:none;stroke-width:0.079375;stroke-linecap:butt;stroke-linejoin:miter;stroke-miterlimit:4;stroke-dasharray:none;stroke-opacity:1"
         d="m 109.26362,116.43334 c 0.15868,0.12528 -0.0532,0.18805 -0.0532,0.42191 0,0.23386 0.0109,0.78837 -0.0731,1.16001 -0.0884,0.39111 -0.29198,0.78489 -0.52559,1.32058 -0.23324,0.53485 -0.71477,1.30625 -0.79346,2.04628 -0.0808,0.75997 -0.0522,0.7825 -0.14198,0.79346 -0.13266,0.0162 -0.12529,0.15869 -1.20271,0.008 -1.09141,-0.15229 -1.30038,-0.11751 -1.37811,-0.35078 -0.19562,-0.58706 0.10259,-0.48842 -0.1253,-1.22778 -0.26878,-0.872 -0.53454,-0.36749 -0.60136,-1.46998 -0.0668,-1.10249 -0.11169,-1.44045 -0.0805,-1.85908 0.0323,-0.43311 -0.0198,-0.64657 0.14731,-0.41271 0.16704,0.23386 0.71415,0.81069 1.04899,0.87366 0.21006,0.0395 0.0282,0.11483 0.75305,0.26003 0.41407,0.083 0.38939,0.16681 1.1143,-0.0254 0.91336,-0.24223 1.14543,-0.68893 1.61315,-1.19006 0.46772,-0.50113 0.41668,-0.39567 0.41668,-0.39567 z"
         id="path1349"
         sodipodi:nodetypes="cssssssssssssssscc" />
      <g
         id="g1466"
         transform="translate(0.14174108,0.02362351)"
         style="opacity:0.997">
        <path
           sodipodi:type="star"
           style="opacity:0.997;fill:#c09f41;fill-opacity:1;stroke:none;stroke-width:0.058429;stroke-linecap:round;stroke-linejoin:round;stroke-miterlimit:4;stroke-dasharray:none;stroke-opacity:1;stop-color:#000000"
           id="path1460"
           sodipodi:sides="5"
           sodipodi:cx="102.41208"
           sodipodi:cy="115.32489"
           sodipodi:r1="0.81698555"
           sodipodi:r2="0.45148331"
           sodipodi:arg1="1.079887"
           sodipodi:arg2="1.7082055"
           inkscape:flatsided="false"
           inkscape:rounded="0.07"
           inkscape:randomized="-0.001"
           d="m 102.79798,116.04524 c -0.0323,0.0173 -0.41214,-0.26738 -0.44846,-0.27239 -0.0363,-0.005 -0.47807,0.16672 -0.50448,0.14129 -0.0264,-0.0254 0.12957,-0.47447 0.12314,-0.51059 -0.006,-0.0361 -0.30705,-0.40195 -0.29108,-0.43496 0.016,-0.033 0.489,-0.025 0.52132,-0.0423 0.0323,-0.0173 0.28879,-0.41644 0.32511,-0.41136 0.0363,0.005 0.17545,0.4597 0.20189,0.48511 0.0264,0.0254 0.48455,0.14437 0.49105,0.18048 0.007,0.0361 -0.38256,0.30778 -0.39862,0.34076 -0.0161,0.033 0.0124,0.50667 -0.0199,0.52398 z"
           inkscape:transform-center-x="8.6838446e-06"
           inkscape:transform-center-y="-5.7439781e-06"
           transform="translate(0.05011304)" />
        <path
           style="fill:#c09f41;fill-opacity:1;stroke:none;stroke-width:0.285123;stroke-linecap:butt;stroke-linejoin:miter;stroke-miterlimit:4;stroke-dasharray:none;stroke-opacity:1"
           d="m 102.264,114.89357 c 0.32899,-0.27002 0.30403,-0.63138 0.3675,-0.96993 -0.007,0.4009 0.0249,0.80181 0.26727,1.20271 z"
           id="path1462"
           sodipodi:nodetypes="cccc" />
      </g>
      <g
         id="g1478"
         transform="matrix(-0.99999999,0,0,0.99999999,213.54497,0.09449405)">
        <path
           sodipodi:type="star"
           style="opacity:0.997;fill:#c09f41;fill-opacity:1;stroke:none;stroke-width:0.058429;stroke-linecap:round;stroke-linejoin:round;stroke-miterlimit:4;stroke-dasharray:none;stroke-opacity:1;stop-color:#000000"
           id="path1474"
           sodipodi:sides="5"
           sodipodi:cx="102.41208"
           sodipodi:cy="115.32489"
           sodipodi:r1="0.81698555"
           sodipodi:r2="0.45148331"
           sodipodi:arg1="1.079887"
           sodipodi:arg2="1.7082055"
           inkscape:flatsided="false"
           inkscape:rounded="0.07"
           inkscape:randomized="-0.001"
           d="m 102.79798,116.04524 c -0.0323,0.0173 -0.41214,-0.26738 -0.44846,-0.27239 -0.0363,-0.005 -0.47807,0.16672 -0.50448,0.14129 -0.0264,-0.0254 0.12957,-0.47447 0.12314,-0.51059 -0.006,-0.0361 -0.30705,-0.40195 -0.29108,-0.43496 0.016,-0.033 0.489,-0.025 0.52132,-0.0423 0.0323,-0.0173 0.28879,-0.41644 0.32511,-0.41136 0.0363,0.005 0.17545,0.4597 0.20189,0.48511 0.0264,0.0254 0.48455,0.14437 0.49105,0.18048 0.007,0.0361 -0.38256,0.30778 -0.39862,0.34076 -0.0161,0.033 0.0124,0.50667 -0.0199,0.52398 z"
           inkscape:transform-center-x="8.6838446e-06"
           inkscape:transform-center-y="-5.7439781e-06"
           transform="translate(0.05011304)" />
        <path
           style="fill:#c09f41;fill-opacity:1;stroke:none;stroke-width:0.285123;stroke-linecap:butt;stroke-linejoin:miter;stroke-miterlimit:4;stroke-dasharray:none;stroke-opacity:1"
           d="m 102.264,114.89357 c 0.32899,-0.27002 0.30403,-0.63138 0.3675,-0.96993 -0.007,0.4009 0.0249,0.80181 0.26727,1.20271 z"
           id="path1476"
           sodipodi:nodetypes="cccc" />
      </g>
      <ellipse
         style="opacity:0.445098;fill:#6d6875;fill-opacity:1;stroke:none;stroke-width:0.0889447;stroke-linecap:round;stroke-linejoin:round;stroke-miterlimit:4;stroke-dasharray:none;stroke-opacity:1;stop-color:#000000"
         id="ellipse1425"
         cx="104.65635"
         cy="112.56917"
         rx="1.6440578"
         ry="1.4321344" />
      <ellipse
         style="opacity:0.445098;fill:#6d6875;fill-opacity:1;stroke:none;stroke-width:0.0895907;stroke-linecap:round;stroke-linejoin:round;stroke-miterlimit:4;stroke-dasharray:none;stroke-opacity:1;stop-color:#000000"
         id="ellipse1427"
         cx="108.7196"
         cy="112.54829"
         rx="1.6440578"
         ry="1.4530149" />
      <path
         style="fill:#241c1c;fill-opacity:1;stroke:none;stroke-width:0.547593;stroke-linecap:butt;stroke-linejoin:miter;stroke-miterlimit:4;stroke-dasharray:none;stroke-opacity:1"
         d="m 105.85879,111.93505 c 0.53864,-0.13275 1.51805,-0.0936 1.50765,0 v 0.10159 c -0.50204,-0.0755 -1.00263,-0.0306 -1.50486,0 z"
         id="path1392"
         sodipodi:nodetypes="ccccc" />
      <path
         id="path1388"
         style="fill:#9a6b94;fill-opacity:1;stroke:none;stroke-width:0.0930019;stroke-linecap:round;stroke-linejoin:round;stroke-miterlimit:4;stroke-dasharray:none;stroke-opacity:1;stop-color:#000000"
         d="m 106.33382,112.30189 c 0,0.86475 -0.73607,1.56577 -1.64406,1.56577 -0.90799,0 -1.43412,-0.72689 -1.64406,-1.56577 -0.33313,-1.33114 0.69117,-1.34132 1.67747,-1.23168 0.90243,0.10031 1.61065,0.36693 1.61065,1.23168 z"
         sodipodi:nodetypes="sssss" />
      <path
         style="fill:#241c1c;fill-opacity:1;stroke:none;stroke-width:0.307238;stroke-linecap:butt;stroke-linejoin:miter;stroke-miterlimit:4;stroke-dasharray:none;stroke-opacity:1"
         d="m 102.39592,111.38637 c 0.27662,0.11783 0.69358,0.46748 0.66032,0.50911 l -0.0311,0.049 c -0.19674,-0.20594 -0.42976,-0.35332 -0.65911,-0.50816 z"
         id="path1421"
         sodipodi:nodetypes="ccccc" />
      <path
         style="fill:#241c1c;fill-opacity:1;stroke:none;stroke-width:0.250664;stroke-linecap:butt;stroke-linejoin:miter;stroke-miterlimit:4;stroke-dasharray:none;stroke-opacity:1"
         d="m 110.86905,111.36967 c -0.21653,0.1002 -0.54291,0.39752 -0.51688,0.43292 l 0.0243,0.0417 c 0.154,-0.17512 0.3364,-0.30045 0.51593,-0.43211 z"
         id="path1423"
         sodipodi:nodetypes="ccccc" />
      <path
         id="path1431"
         style="fill:#9a6b94;fill-opacity:1;stroke:none;stroke-width:0.0931333;stroke-linecap:round;stroke-linejoin:round;stroke-miterlimit:4;stroke-dasharray:none;stroke-opacity:1;stop-color:#000000"
         d="m 107.09071,112.26848 c 0,0.86475 0.73607,1.56577 1.64406,1.56577 0.90799,0 1.43412,-0.72689 1.64406,-1.56577 0.33313,-1.33114 -0.69117,-1.34132 -1.67747,-1.23168 -0.90243,0.10031 -1.61065,0.36693 -1.61065,1.23168 z"
         sodipodi:nodetypes="sssss" />
      <path
         style="fill:#d29c55;fill-opacity:0.81713;stroke:none;stroke-width:0.079375;stroke-linecap:butt;stroke-linejoin:miter;stroke-miterlimit:4;stroke-dasharray:none;stroke-opacity:1;filter:url(#filter1377)"
         d="m 104.32758,116.89498 c -0.13057,0.14689 0.45157,1.16945 0.50889,1.33838 -0.19249,1.53876 2.56151,1.27051 3.20724,0.0668 -0.0999,0.24675 1.39596,-1.66019 1.2044,-1.70469 0.002,-0.009 -1.0686,1.08305 -1.38529,1.21318 -0.40784,0.16758 -0.77148,0.27016 -1.13876,0.28271 -0.33114,0.0113 -1.95363,-0.75436 -2.06072,-0.91528 -0.074,-0.11125 -0.34757,-0.36379 -0.34757,-0.36379 z"
         id="path1375"
         sodipodi:nodetypes="ccccssscc" />
    </g>
  </g>
</svg>
